# xmcd CD database file
#
# Track frame offsets:
#	150
#	14769
#	27485
#	41727
#	54989
#	69607
#	84649
#	99708
#	114217
#	127474
#	140814
#	154748
#	169033
#	182449
#	197744
#	211455
#	224269
#
# Disc length: 3119 seconds
#
# Revision: 0
# Processed by: cddbd v1.5.2PL0 Copyright (c) Steve Scherf et al.
# Submitted via: CDex 1.99.1
#
DISCID=020c2d11
DTITLE=Billie Holiday - Golden Hits CD2
DYEAR=2014
DGENRE=Jazz
TTITLE0=Baby Get Lost
TTITLE1=Them There Eyes
TTITLE2=My Man (Mon Homme)
TTITLE3=(I Love You) Porgy
TTITLE4=Keeps On A Rainin'
TTITLE5='Taint Nobody Business If I Do
TTITLE6=Weep No More
TTITLE7=Girls Were Made To Take Care Of Boys
TTITLE8=Mandy Is Two
TTITLE9=I'll Get By
TTITLE10=The Man I Love
TTITLE11=As Time Goes By
TTITLE12=Night And Day
TTITLE13=Don't Explain
TTITLE14=On The Sunny SIde Of The Street
TTITLE15=Why Was I Born?
TTITLE16=I'm Gonna Lock My Heart And Throw Away The Key
EXTD=YEAR: 2014
EXTT0=
EXTT1=
EXTT2=
EXTT3=
EXTT4=
EXTT5=
EXTT6=
EXTT7=
EXTT8=
EXTT9=
EXTT10=
EXTT11=
EXTT12=
EXTT13=
EXTT14=
EXTT15=
EXTT16=
PLAYORDER=
